<svg width="67" height="67" viewBox="0 0 67 67" fill="none" xmlns="http://www.w3.org/2000/svg">
<path d="M63.2916 33.1458C63.2916 49.7949 49.7949 63.2916 33.1458 63.2916C16.4967 63.2916 3 49.7949 3 33.1458C3 16.4967 16.4967 3 33.1458 3C49.7949 3 63.2916 16.4967 63.2916 33.1458Z" fill="black"/>
<path fill-rule="evenodd" clip-rule="evenodd" d="M33.1452 65.2904C50.8985 65.2904 65.2904 50.8985 65.2904 33.1452C65.2904 15.3919 50.8985 1 33.1452 1C15.3919 1 1 15.3919 1 33.1452C1 50.8985 15.3919 65.2904 33.1452 65.2904ZM33.1452 66.2904C51.4508 66.2904 66.2904 51.4508 66.2904 33.1452C66.2904 14.8396 51.4508 0 33.1452 0C14.8396 0 0 14.8396 0 33.1452C0 51.4508 14.8396 66.2904 33.1452 66.2904Z" fill="black"/>
<path fill-rule="evenodd" clip-rule="evenodd" d="M42.2659 24.0232C41.7032 23.4606 40.9402 23.1445 40.1445 23.1445H37.1445C36.3489 23.1445 35.5858 23.4606 35.0232 24.0232C34.4606 24.5858 34.1445 25.3489 34.1445 26.1445V36.1445C34.1445 38.001 34.882 39.7815 36.1948 41.0943C37.5075 42.407 39.288 43.1445 41.1445 43.1445C41.675 43.1445 42.1837 42.9338 42.5587 42.5587C42.9338 42.1837 43.1445 41.675 43.1445 41.1445V39.1445C43.1445 38.6141 42.9338 38.1054 42.5587 37.7303C42.1837 37.3552 41.675 37.1445 41.1445 37.1445C40.8793 37.1445 40.625 37.0392 40.4374 36.8516C40.2499 36.6641 40.1445 36.4097 40.1445 36.1445V35.1445C40.9402 35.1445 41.7032 34.8285 42.2659 34.2659C42.8285 33.7032 43.1445 32.9402 43.1445 32.1445V26.1445C43.1445 25.3489 42.8285 24.5858 42.2659 24.0232ZM40.1445 25.1445C40.4097 25.1445 40.6641 25.2499 40.8516 25.4374C41.0392 25.625 41.1445 25.8793 41.1445 26.1445V32.1445C41.1445 32.4097 41.0392 32.6641 40.8516 32.8516C40.6641 33.0392 40.4097 33.1445 40.1445 33.1445C39.6141 33.1445 39.1054 33.3552 38.7303 33.7303C38.3552 34.1054 38.1445 34.6141 38.1445 35.1445V36.1445C38.1445 36.9402 38.4606 37.7032 39.0232 38.2659C39.5858 38.8285 40.3489 39.1445 41.1445 39.1445V41.1445C39.8184 41.1445 38.5467 40.6177 37.609 39.6801C36.6713 38.7424 36.1445 37.4706 36.1445 36.1445V26.1445C36.1445 25.8793 36.2499 25.625 36.4374 25.4374C36.625 25.2499 36.8793 25.1445 37.1445 25.1445H40.1445ZM31.2659 24.0232C30.7032 23.4606 29.9402 23.1445 29.1445 23.1445H26.1445C25.3489 23.1445 24.5858 23.4606 24.0232 24.0232C23.4606 24.5858 23.1445 25.3489 23.1445 26.1445V36.1445C23.1445 38.001 23.882 39.7815 25.1948 41.0943C26.5075 42.407 28.288 43.1445 30.1445 43.1445C30.675 43.1445 31.1837 42.9338 31.5587 42.5587C31.9338 42.1837 32.1445 41.675 32.1445 41.1445V39.1445C32.1445 38.6141 31.9338 38.1054 31.5587 37.7303C31.1837 37.3552 30.675 37.1445 30.1445 37.1445C29.8793 37.1445 29.625 37.0392 29.4374 36.8516C29.2499 36.6641 29.1445 36.4097 29.1445 36.1445V35.1445C29.9402 35.1445 30.7032 34.8285 31.2659 34.2659C31.8285 33.7032 32.1445 32.9402 32.1445 32.1445V26.1445C32.1445 25.3489 31.8285 24.5858 31.2659 24.0232ZM29.1445 25.1445C29.4097 25.1445 29.6641 25.2499 29.8516 25.4374C30.0392 25.625 30.1445 25.8793 30.1445 26.1445V32.1445C30.1445 32.4097 30.0392 32.6641 29.8516 32.8516C29.6641 33.0392 29.4097 33.1445 29.1445 33.1445C28.6141 33.1445 28.1054 33.3552 27.7303 33.7303C27.3552 34.1054 27.1445 34.6141 27.1445 35.1445V36.1445C27.1445 36.9402 27.4606 37.7032 28.0232 38.2659C28.5858 38.8285 29.3489 39.1445 30.1445 39.1445V41.1445C28.8184 41.1445 27.5467 40.6177 26.609 39.6801C25.6713 38.7424 25.1445 37.4706 25.1445 36.1445V26.1445C25.1445 25.8793 25.2499 25.625 25.4374 25.4374C25.625 25.2499 25.8793 25.1445 26.1445 25.1445H29.1445Z" fill="#F9F9F9"/>
</svg>
